HIERARCHY
ROOT Hips
{
 OFFSET 0.000000 0.000000 0.000000
 CHANNELS 6 Xposition Yposition Zposition Yrotation Xrotation Zrotation
 JOINT Chest
 {
  OFFSET 0.000000 9.581000 -0.001100
  CHANNELS 3 Yrotation Xrotation Zrotation
  JOINT Chest2
  {
   OFFSET 0.000000 9.561100 0.002200
   CHANNELS 3 Yrotation Xrotation Zrotation
   JOINT Chest3
   {
    OFFSET 0.000000 9.521100 0.000000
    CHANNELS 3 Yrotation Xrotation Zrotation
    JOINT Chest4
    {
     OFFSET 0.000000 9.511400 0.000000
     CHANNELS 3 Yrotation Xrotation Zrotation
     JOINT Neck
     {
      OFFSET 0.000000 14.375100 0.000000
      CHANNELS 3 Yrotation Xrotation Zrotation
      JOINT Head
      {
       OFFSET 0.000000 8.901200 0.004600
       CHANNELS 3 Yrotation Xrotation Zrotation
       End Site
       {
        OFFSET 0.000000 16.962200 0.002400
       }
      }
     }
     JOINT RightCollar
     {
      OFFSET -2.920100 9.518800 0.000000
      CHANNELS 3 Yrotation Xrotation Zrotation
      JOINT RightShoulder
      {
       OFFSET -13.664500 0.000000 0.000000
       CHANNELS 3 Yrotation Xrotation Zrotation
       JOINT RightElbow
       {
        OFFSET 0.000000 -29.999200 0.000000
        CHANNELS 3 Yrotation Xrotation Zrotation
        JOINT RightWrist
        {
         OFFSET 0.000000 -24.253600 0.000000
         CHANNELS 3 Yrotation Xrotation Zrotation
         End Site
         {
          OFFSET 0.000000 -17.918900 0.000000
         }
        }
       }
      }
     }
     JOINT LeftCollar
     {
      OFFSET 2.920100 9.518800 0.000000
      CHANNELS 3 Yrotation Xrotation Zrotation
      JOINT LeftShoulder
      {
       OFFSET 13.664500 0.000000 0.000000
       CHANNELS 3 Yrotation Xrotation Zrotation
       JOINT LeftElbow
       {
        OFFSET 0.000000 -29.999200 0.000000
        CHANNELS 3 Yrotation Xrotation Zrotation
        JOINT LeftWrist
        {
         OFFSET 0.000000 -24.253600 0.000000
         CHANNELS 3 Yrotation Xrotation Zrotation
         End Site
         {
          OFFSET 0.000000 -17.918900 0.000000
         }
        }
       }
      }
     }
    }
   }
  }
 }
 JOINT RightHip
 {
  OFFSET -7.797300 0.005300 0.000500
  CHANNELS 3 Yrotation Xrotation Zrotation
  JOINT RightKnee
  {
   OFFSET 0.000000 -40.663400 -0.000500
   CHANNELS 3 Yrotation Xrotation Zrotation
   JOINT RightAnkle
   {
    OFFSET 0.000000 -39.523700 -0.000900
    CHANNELS 3 Yrotation Xrotation Zrotation
    JOINT RightToe
    {
     OFFSET 0.000000 -6.418000 14.485300
     CHANNELS 3 Yrotation Xrotation Zrotation
     End Site
     {
      OFFSET 0.000000 -1.465200 6.326400
     }
    }
   }
  }
 }
 JOINT LeftHip
 {
  OFFSET 7.797300 0.005300 0.000500
  CHANNELS 3 Yrotation Xrotation Zrotation
  JOINT LeftKnee
  {
   OFFSET 0.000000 -40.663400 -0.000500
   CHANNELS 3 Yrotation Xrotation Zrotation
   JOINT LeftAnkle
   {
    OFFSET 0.000000 -39.523700 -0.000900
    CHANNELS 3 Yrotation Xrotation Zrotation
    JOINT LeftToe
    {
     OFFSET 0.000000 -6.418000 14.485300
     CHANNELS 3 Yrotation Xrotation Zrotation
     End Site
     {
      OFFSET 0.000000 -1.465200 6.326400
     }
    }
   }
  }
 }
}
MOTION
Frames: 8
Frame Time: 0.008333
0.000000 86.422400 0.000000 0.000000 -5.767877 0.000000 0.000000 11.653817 0.000000 0.000000 -5.885947 0.000000 0.000000 -0.000000 0.000000 0.000000 -0.000000 0.000000 0.000000 12.528835 0.000000 0.000000 0.711642 0.000000 0.000000 -0.000000 0.000000 0.000000 0.000000 -90.000000 0.000000 -2.309062 0.000000 0.000000 2.309062 0.000000 0.000000 -0.000000 0.000000 0.000000 -0.000000 90.000000 0.000000 -2.309062 0.000000 0.000000 2.309062 0.000000 0.000000 8.520406 0.000000 0.000000 1.905762 0.000000 -0.000000 -4.658285 0.000000 0.000000 -0.000000 0.000000 0.000000 8.520406 0.000000 0.000000 1.905762 0.000000 -0.000000 -4.658285 0.000000 0.000000 -0.000000 0.000000
-15.013149 126.908405 22.042022 -169.678006 -48.801608 -3.989498 -1.198551 25.888817 -0.434805 -0.173836 4.260063 -0.048173 -0.285410 6.774543 -0.061335 -0.954809 21.302230 -0.287954 3.099774 18.156270 -0.729731 3.459610 -6.572638 -1.448741 0.654956 3.712393 1.393675 2.748882 -3.819549 -8.250390 -94.180494 -63.979051 143.427929 5.138972 -15.665263 -39.882025 -9.135274 -1.081496 -0.780944 -13.900540 -17.172723 12.454689 76.605214 -61.142322 -123.397793 -10.003172 -29.614598 24.709880 -4.596341 -23.250255 -3.045805 -3.189555 77.932217 -1.366115 10.490570 -12.401491 2.075892 -0.000615 -0.000932 -0.000272 6.997412 5.183876 3.015181 128.508457 65.130416 148.414401 5.665001 12.993121 3.795516 -0.003659 0.008678 -0.001621
-15.012639 126.908186 22.042597 -169.670892 -48.801741 -3.993501 -1.197357 25.897817 -0.447795 -0.175800 4.261123 -0.044984 -0.285265 6.774392 -0.059612 -0.954666 21.316582 -0.310730 3.079858 18.129981 -0.705148 3.411019 -6.609484 -1.416809 0.671874 3.682613 1.403029 2.744812 -3.803696 -8.254259 -94.128895 -63.991504 143.390958 5.135636 -15.614521 -39.875976 -9.148002 -1.109465 -0.780136 -13.832154 -17.142770 12.403387 76.504883 -61.170687 -123.343265 -10.018647 -29.592191 24.702267 -4.603963 -23.251202 -3.041390 -3.203659 77.931865 -1.385161 10.478089 -12.395891 2.080788 -0.000966 -0.000982 -0.000428 6.989121 5.181879 3.017254 128.502711 65.132457 148.405745 5.655929 12.991052 3.821868 -0.001507 0.004707 -0.000668
-15.013007 126.908604 22.042760 -169.672008 -48.807683 -3.986055 -1.190190 25.922069 -0.473188 -0.181890 4.246012 -0.026416 -0.284371 6.781261 -0.065267 -0.954819 21.335785 -0.334049 3.081308 18.098857 -0.675300 3.341767 -6.650223 -1.380104 0.689872 3.648293 1.408701 2.732895 -3.794723 -8.252520 -94.047173 -64.005468 143.335392 5.130755 -15.597776 -39.877772 -9.163540 -1.148238 -0.782865 -13.801342 -17.111427 12.409189 76.366405 -61.117104 -123.206576 -10.030834 -29.535187 24.709482 -4.602434 -23.247832 -3.048724 -3.197192 77.932572 -1.384589 10.486835 -12.390301 2.084736 0.000205 -0.001045 0.000091 6.986159 5.185257 3.013352 128.477667 65.139616 148.377791 5.645346 13.004177 3.850610 -0.000490 -0.003614 -0.000217
-15.013302 126.908848 22.043121 -169.673154 -48.812094 -3.978573 -1.189350 25.932353 -0.484977 -0.178971 4.252658 -0.033156 -0.282977 6.787660 -0.069394 -0.951749 21.343854 -0.346622 3.049213 18.066247 -0.650792 3.302351 -6.689418 -1.344378 0.698277 3.619011 1.426601 2.746563 -3.787129 -8.283884 -93.989276 -63.991102 143.281128 5.122420 -15.580029 -39.870157 -9.173922 -1.178415 -0.767629 -13.789361 -17.095048 12.417844 76.246275 -61.069656 -123.088238 -10.013489 -29.483940 24.733179 -4.600565 -23.245260 -3.053889 -3.203197 77.934122 -1.394473 10.482363 -12.386887 2.091025 0.000736 -0.000719 0.000326 6.985451 5.188657 3.008604 128.471682 65.143152 148.371099 5.649643 13.016406 3.840289 -0.001061 -0.001891 -0.000470
-15.012529 126.908662 22.043810 -169.675174 -48.812406 -3.976492 -1.179053 25.953254 -0.493944 -0.172853 4.275529 -0.045475 -0.281844 6.795284 -0.072079 -0.945279 21.330235 -0.342194 3.015967 18.028479 -0.625796 3.258922 -6.735747 -1.308805 0.704146 3.580435 1.442945 2.762111 -3.786990 -8.301409 -93.915508 -63.992234 143.208286 5.112376 -15.560091 -39.860427 -9.187308 -1.220383 -0.752886 -13.762624 -17.071993 12.394717 76.175707 -61.084977 -123.041219 -9.956526 -29.440861 24.760679 -4.602667 -23.246592 -3.049497 -3.234155 77.935673 -1.431730 10.475277 -12.383433 2.100777 -0.001337 -0.000369 -0.000593 6.983525 5.184257 3.011226 128.482492 65.145327 148.380896 5.667847 13.042920 3.779884 -0.003416 0.006333 -0.001514
-15.012560 126.908493 22.044558 -169.675011 -48.812916 -3.971560 -1.171461 25.975333 -0.505333 -0.173515 4.278033 -0.045235 -0.286845 6.778982 -0.064803 -0.941142 21.364616 -0.364073 2.944676 17.990250 -0.604972 3.253621 -6.788990 -1.285185 0.721885 3.521306 1.415374 2.770851 -3.776286 -8.280591 -93.860302 -63.985502 143.140295 5.097369 -15.528976 -39.845132 -9.251851 -1.288902 -0.783945 -13.681413 -17.008030 12.393236 76.105158 -61.118134 -123.010458 -9.884287 -29.403367 24.787457 -4.601479 -23.247390 -3.051720 -3.238155 77.936904 -1.435816 10.458704 -12.380906 2.105535 -0.002457 -0.000149 -0.001089 6.980276 5.175834 3.011723 128.498242 65.149795 148.395303 5.679468 13.069239 3.738711 -0.003731 0.009091 -0.001653
-15.013135 126.908953 22.044834 -169.670199 -48.817874 -3.967977 -1.171507 25.998615 -0.520807 -0.172569 4.285171 -0.047149 -0.282401 6.789026 -0.064867 -0.936062 21.426699 -0.400782 2.915510 17.894559 -0.554518 3.212789 -6.841734 -1.251362 0.721759 3.418473 1.455308 2.789722 -3.775507 -8.295667 -93.773011 -63.996760 143.058189 5.094379 -15.530380 -39.847489 -9.308526 -1.395219 -0.746936 -13.631040 -16.974093 12.405312 75.823296 -61.025803 -122.780120 -9.933413 -29.410707 24.822048 -4.606967 -23.242675 -3.060892 -3.228141 77.937674 -1.428097 10.467012 -12.378591 2.105713 -0.002288 -0.000336 -0.001014 6.976704 5.177927 3.008398 128.506202 65.152567 148.405389 5.693247 13.088844 3.688290 -0.004984 0.017214 -0.002209
